# xmcd
# Copyright (C) 1995-1998 Ti Kan
#
# Track frame offsets:
#       150
#       14335
#       27032
#       36343
#       47896
#       60814
#       71702
#       85976
#       99241
#       108062
#       122279
#       137458
#       148720
#       164464
#       175892
#       192441
#       204124
#       223703
#       239357
#       252818
#
# Disc length: 3515 seconds
#
# Revision: 0
# Processed by: cddbd v1.5.2PL0 Copyright (c) Steve Scherf et al.
# Submitted via: CD-Import v1.0
#
DISCID=090db914
DTITLE=Various Artist - Le Beat Bespoké 3
DYEAR=2009
DGENRE=
TTITLE0=Paragons - Abba
TTITLE1=Syd's Group - Time's A Good Thing
TTITLE2=Soul Inc - Love Me When I'm Down
TTITLE3=Noon Express - Flashback
TTITLE4=Bit'a Sweet - Is It Off - Is It On
TTITLE5=Fire and Ice - Mirrors
TTITLE6=Bastille - Music Ship
TTITLE7=Ro-D-Ys - Looking For Something Better
TTITLE8=Joanna - Hold-Up Inusite
TTITLE9=Don Shinn and The Soul Agents - A Minor Explosion
TTITLE10=Douglas - Si Je Buvais Moins
TTITLE11=Jonah P Jones - Sunrise Highway
TTITLE12=Alex Harvey - Midnight Moses
TTITLE13=Fire and Ice - Music Man
TTITLE14=Whichwhat - It's All Over Again
TTITLE15=Claude Bolling - Strange Magic
TTITLE16=Tam White - Future Thoughts
TTITLE17=Chris Britton - Fly With Me
TTITLE18=Julie Felix - Snakeskin
TTITLE19=Rick Mcclellan - Frozen Sunshine
EXTD=
EXTT0=
EXTT1=
EXTT2=
EXTT3=
EXTT4=
EXTT5=
EXTT6=
EXTT7=
EXTT8=
EXTT9=
EXTT10=
EXTT11=
EXTT12=
EXTT13=
EXTT14=
EXTT15=
EXTT16=
EXTT17=
EXTT18=
EXTT19=
PLAYORDER=
